:SAMPLES-PER-SECOND 30
:FULLY-SPECIFIED
:DEGREES
148
root  -64.7314 41.6109 26.904 -2.61057 -44.633 1.4279
RightUpLeg  -0.13459 -6.80988 -1.56825
RightLeg  4.78921 -2.98298 3.9769
RightFoot  -0.984902 0.646724 -7.19412
RightToes  2.91037e-010 0 -3.6325e-017
Spine  -2.44269 0.362665 7.11588
Spine1  7.76657 1.4497 -5.00961
HEad  -5.70068 -2.82219 -1.99801
LeftShoulder1  2.81329 -4.78682 -27.7499
LeftArm  -17.4949 23.4157 -9.75998
LeftForeArm  15.5279 -10.059 -1.48905
LeftHand  -0.244104 0.0205437 5.32207
RightShoulder  2.41467 4.20336 25.2196
RightArm  -16.8803 -19.0092 10.0338
RightForeArm  -7.15202 6.10333 4.00254
RightHand  -1.4125 4.42742 -16.8609
LeftUpLeg  0.4505 4.07248 3.17868
LeftLeg  -1.00052 5.90141 -3.61026
LeftFoot  2.15062 0.0613079 -0.671108
LeftToes  -2.38291e-010 7.29328e-011 -2.49822e-011
149
root  -64.8614 41.6199 27.0894 -2.38435 -44.5881 1.38564
RightUpLeg  0.122317 -6.78896 -1.59427
RightLeg  4.60234 -3.0378 3.94285
RightFoot  -1.22467 0.618837 -7.06976
RightToes  2.91037e-010 0 -3.6325e-017
Spine  -2.11781 0.279891 6.84779
Spine1  7.23007 1.42745 -5.24968
HEad  -5.42618 -2.60031 -1.73301
LeftShoulder1  2.09185 -3.50851 -23.4683
LeftArm  -17.0501 22.1138 -6.24918
LeftForeArm  15.2247 -10.0339 -1.51177
LeftHand  -0.244104 0.0205437 5.32207
RightShoulder  1.84783 3.12025 21.589
RightArm  -17.4556 -17.9117 5.94185
RightForeArm  -9.38358 5.65211 3.76867
RightHand  -1.26874 3.60331 -16.5333
LeftUpLeg  0.600037 3.97904 3.08341
LeftLeg  -1.02816 5.86359 -3.51171
LeftFoot  1.98905 0.056559 -0.601831
LeftToes  -2.38291e-010 7.29328e-011 -2.49822e-011
150
root  -64.967 41.6252 27.2521 -2.14174 -44.5977 1.35428
RightUpLeg  0.252191 -6.71839 -1.60227
RightLeg  4.48284 -3.07652 3.86953
RightFoot  -1.44666 0.583029 -6.83418
RightToes  2.91037e-010 0 -3.6325e-017
Spine  -2.06001 0.118688 6.44488
Spine1  7.02405 1.29572 -5.35632
HEad  -5.17283 -2.07856 -1.46182
LeftShoulder1  1.44279 -2.14533 -18.8576
LeftArm  -16.6456 21.0761 -4.08288
LeftForeArm  14.1598 -10.658 -1.78842
LeftHand  -0.244104 0.0205437 5.32207
RightShoulder  1.35506 2.00617 18.0148
RightArm  -17.3556 -15.9379 2.76043
RightForeArm  -12.0511 5.2393 3.92551
RightHand  -1.24791 3.27225 -16.8665
LeftUpLeg  0.581178 3.91252 2.99516
LeftLeg  -0.818569 5.98625 -3.41482
LeftFoot  1.62321 0.0519577 -0.533999
LeftToes  -2.38291e-010 7.29328e-011 -2.49822e-011
151
root  -65.0555 41.6264 27.3959 -1.81435 -44.5029 1.33934
RightUpLeg  0.232941 -6.67731 -1.63336
RightLeg  4.40279 -3.17047 3.82458
RightFoot  -1.70919 0.544285 -6.58468
RightToes  2.91037e-010 0 -3.6325e-017
Spine  -2.16759 -0.110649 5.95475
Spine1  6.74773 1.0751 -5.42655
HEad  -4.52802 -1.44849 -1.0238
LeftShoulder1  0.898055 -0.814796 -13.7251
LeftArm  -17.8065 20.5211 -3.07709
LeftForeArm  17.0434 -12.1134 -1.59575
LeftHand  -0.244104 0.0205437 5.32207
RightShoulder  0.929962 0.868819 14.443
RightArm  -16.0687 -13.6893 0.31092
RightForeArm  -13.107 5.02868 4.4761
RightHand  -1.12114 2.62953 -16.3204
LeftUpLeg  0.440318 3.85679 2.91926
LeftLeg  -0.703591 6.03092 -3.37754
LeftFoot  1.23145 0.0499481 -0.522966
LeftToes  -2.38291e-010 7.29328e-011 -2.49822e-011
152
root  -65.1312 41.6265 27.5251 -1.46906 -44.3117 1.22089
RightUpLeg  0.316495 -6.68152 -1.63262
RightLeg  4.20383 -3.30203 3.8663
RightFoot  -1.90216 0.518267 -6.42175
RightToes  2.91037e-010 0 -3.6325e-017
Spine  -2.02558 -0.363651 5.64454
Spine1  6.02177 0.845757 -5.63855
HEad  -3.38248 -0.980279 -0.405507
LeftShoulder1  0.504949 0.404294 -8.63452
LeftArm  -18.1699 19.8639 -3.10793
LeftForeArm  15.8249 -12.9243 -1.83111
LeftHand  -0.244104 0.0205437 5.32207
RightShoulder  0.622551 -0.114608 11.1155
RightArm  -15.3372 -11.8276 -1.52335
RightForeArm  -10.9257 5.25122 4.72697
RightHand  -0.848706 1.41261 -14.621
LeftUpLeg  0.277687 3.83731 2.91724
LeftLeg  -0.543604 5.8362 -3.32964
LeftFoot  0.988875 0.0429885 -0.454211
LeftToes  -2.38291e-010 7.29328e-011 -2.49822e-011
153
root  -65.1964 41.63 27.6451 -1.21143 -44.163 1.05383
RightUpLeg  0.54695 -6.62848 -1.56648
RightLeg  3.89746 -3.45881 3.85914
RightFoot  -1.97155 0.502824 -6.28729
RightToes  2.91037e-010 0 -3.6325e-017
Spine  -2.12432 -0.651153 5.26339
Spine1  6.17606 0.528694 -5.4802
HEad  -3.3298 -0.539689 -0.0572892
LeftShoulder1  0.193932 2.0386 -5.229
LeftArm  -17.9632 17.9849 -3.23044
LeftForeArm  11.3822 -12.5887 -2.22202
LeftHand  -0.244104 0.0205437 5.32207
RightShoulder  0.348024 -1.27489 8.25831
RightArm  -16.9537 -9.79006 -2.19887
RightForeArm  -9.26126 6.01655 4.46838
RightHand  -0.855821 1.372 -14.6695
LeftUpLeg  0.194547 3.82156 2.9408
LeftLeg  -0.291601 5.64832 -3.2374
LeftFoot  0.78194 0.0332578 -0.347468
LeftToes  -2.38291e-010 7.29328e-011 -2.49822e-011
154
root  -65.2497 41.6344 27.7524 -1.03714 -44.1715 1.05339
RightUpLeg  0.59303 -6.49972 -1.53102
RightLeg  3.77545 -3.57827 3.69642
RightFoot  -2.06074 0.483039 -6.1122
RightToes  2.91037e-010 0 -3.6325e-017
Spine  -2.20259 -0.837176 5.1766
Spine1  5.95332 0.455062 -6.00575
HEad  -2.49867 -0.302495 0.680235
LeftShoulder1  0.0905941 2.63887 -1.95765
LeftArm  -19.3705 16.7437 -3.23327
LeftForeArm  12.8769 -12.4786 -1.88744
LeftHand  -0.244104 0.0205437 5.32207
RightShoulder  0.271885 -1.63527 6.9054
RightArm  -16.8946 -8.56029 -3.36022
RightForeArm  -13.1707 6.86787 4.96747
RightHand  -1.27027 3.02586 -17.6779
LeftUpLeg  0.200804 3.75633 2.86449
LeftLeg  -0.292731 5.73277 -3.20881
LeftFoot  0.586332 0.0290683 -0.317729
LeftToes  -2.38291e-010 7.29328e-011 -2.49822e-011
